<svg width="160" height="25" viewBox="0 0 160 25" fill="none" xmlns="http://www.w3.org/2000/svg">
<path d="M105.6 4.51311C101.04 4.51311 97.84 8.06455 97.84 12.5893C97.84 17.1141 101.067 20.6919 105.68 20.6919C110.24 20.6919 113.44 17.1404 113.44 12.6156C113.413 8.09085 110.187 4.51311 105.6 4.51311ZM105.6 24.3485C98.5333 24.3485 93.6 19.1661 93.6 12.6156C93.6 6.09152 98.5867 0.856445 105.68 0.856445C112.747 0.856445 117.707 6.03891 117.707 12.5893C117.68 19.1135 112.667 24.3485 105.6 24.3485ZM30.7467 4.51311C26.1867 4.51311 23.0133 8.06455 23.0133 12.5893C23.0133 17.1141 26.24 20.6919 30.8 20.6919C35.36 20.6919 38.56 17.1404 38.56 12.6156C38.56 8.09085 35.3333 4.51311 30.7467 4.51311ZM30.7467 24.3485C23.68 24.3485 18.72 19.1661 18.72 12.6156C18.72 6.09152 23.7067 0.856445 30.8 0.856445C37.8667 0.856445 42.8267 6.03891 42.8267 12.5893C42.8267 19.1135 37.84 24.3485 30.7467 24.3485ZM54.56 23.9539L48.32 7.66994V23.9539H44.32V1.25105H50.08L55.7067 15.8514L61.3067 1.25105H67.04V23.9539H62.9867V7.64363L56.72 23.9539H54.56ZM147.76 4.8814H143.227V20.3236H147.76C152.64 20.3236 155.76 17.193 155.76 12.6419C155.76 8.14346 152.747 4.8814 147.76 4.8814ZM147.76 23.9539H139.173V1.22474H147.813C155.227 1.22474 160 5.9863 160 12.563C160 18.9819 155.307 23.9539 147.76 23.9539ZM128.56 4.8814H123.2V11.5634H128.587C131.707 11.5634 133.467 10.248 133.467 8.11716C133.493 5.618 131.573 4.8814 128.56 4.8814ZM133.973 23.9539L128.267 15.1674H123.2V23.9276H119.173V1.19843H129.36C134.72 1.19843 137.627 3.69759 137.627 7.93301C137.627 11.8001 135.413 13.7732 132.587 14.4308L138.72 23.9013L133.973 23.9539ZM93.2267 4.8814H80.1333V11.5634H92.2133V15.1937H80.1333V23.9539H76.08V1.22474H93.2267V4.8814ZM11.92 23.9539H7.84V4.8814H0V1.22474H19.68V4.8814H11.92V23.9539Z" fill="#E8EBE4"/>
</svg>
