<svg width="120" height="64" viewBox="0 0 120 64" fill="none" xmlns="http://www.w3.org/2000/svg">
<path d="M120 64H0V0H120V64ZM77.8836 7.40573C76.6233 8.12859 75.5908 9.03139 74.7325 10.0656C73.8629 11.1136 73.2004 12.3889 72.551 13.6676C71.8644 15.0207 71.4533 16.4759 71.2086 18.1193C70.9598 19.7928 70.8882 21.6087 70.7984 23.476C70.5753 28.1144 70.7395 32.9909 70.3695 37.4775C70.338 37.8591 70.3162 38.3248 70.2199 38.7704C70.1455 39.1164 69.9373 39.6873 70.0894 39.9895C70.3537 40.5123 71.3745 40.0306 71.6742 39.8784C72.7829 39.3178 73.7933 38.6291 74.1168 37.385C74.336 36.5418 74.2476 35.278 74.2476 34.245C74.2476 31.9876 74.322 29.9531 74.322 27.7613C74.322 26.6923 74.3459 25.6255 74.3966 24.5657C74.497 22.4604 74.467 20.3884 74.7317 18.3408C74.9859 16.3796 75.2754 14.5912 75.8691 12.9286C76.4078 11.4207 77.2412 9.76379 78.3676 8.84637C78.9661 8.35887 79.8816 7.96065 80.866 8.27375C81.6945 8.53712 82.2444 9.09512 82.5627 9.88078C83.2612 11.6048 82.6804 14.0173 82.078 15.3299C80.6749 18.3876 78.4401 20.4544 76.3725 22.774C75.8795 23.327 75.3245 24.1372 75.4774 25.1199C75.6247 26.067 76.1766 26.5753 76.7081 27.1887C77.1791 27.7327 77.7276 28.3649 78.2742 28.9065C78.8544 29.4816 79.4196 29.9694 79.766 30.7168C80.1685 31.5858 79.9939 32.6153 79.6168 33.3584C79.2423 34.0961 78.782 34.7602 78.3303 35.3531C77.3382 36.6552 76.3293 37.8151 75.3101 38.9182C74.8226 39.4452 74.2647 40.0458 73.7066 40.5991C73.455 40.8483 73.154 41.1381 72.8862 41.4303C72.5952 41.7477 72.34 42.0217 72.1777 42.3722C71.5686 43.6875 72.4072 45.2849 72.9048 46.1592C73.0737 46.4557 73.2943 46.9516 73.6879 47.0272C74.0046 47.0882 74.196 46.9424 74.3219 46.8426C74.5343 46.6745 74.6811 46.4112 74.8439 46.1406C75.3065 45.3703 75.8543 44.617 76.3728 43.9609C78.1786 41.6766 80.1639 39.4663 82.1342 37.3852C82.9392 36.5347 83.7944 35.7563 84.2784 34.5958C84.5297 33.9939 84.67 33.2678 84.5767 32.5084C84.405 31.1087 83.6226 30.162 82.6749 29.4792C81.1667 28.3921 79.8769 27.455 78.517 26.228C78.0379 25.7956 77.0201 24.9978 77.5288 24.1222C77.7599 23.7246 78.2274 23.4774 78.6476 23.1987C79.0913 22.9042 79.4549 22.6501 79.8595 22.3674C82.2405 20.7048 84.4512 18.8745 85.9751 16.2164C86.4571 15.3762 86.8988 14.4357 87.1125 13.2794C87.5768 10.7639 86.6324 8.40782 85.3598 7.14682C84.6414 6.43505 83.7585 5.97249 82.3579 6.03853C80.6431 6.1198 79.107 6.70412 77.8836 7.40573ZM28.8093 55.155C29.3485 54.3866 29.3314 53.3022 29.3314 52.0148C29.3314 51.2988 29.2587 50.4635 29.9654 50.4449C30.1945 50.4389 30.5014 50.6361 30.7671 50.7588C34.1117 52.3053 37.2527 53.903 40.5745 55.4506C41.0582 55.6761 41.5905 56.0652 42.2339 56.0417C42.8295 56.0192 43.1668 55.5552 43.4458 55.1367C43.7485 54.6824 44.0419 54.2165 44.1357 53.6958C44.3276 52.6303 43.2154 52.3306 42.4763 51.9779C38.5331 50.0979 34.6038 48.1864 30.6925 46.2702C30.3811 46.1178 30.0149 45.9983 29.7789 45.827C29.2621 45.4516 29.4433 44.3202 29.4433 43.3335C29.4433 42.9784 29.4619 42.6613 29.4619 42.2989C29.4619 41.9403 29.4206 41.5419 29.4992 41.2827C29.6123 40.9105 30.0228 40.7364 30.3942 40.507C33.7449 38.4374 36.4509 35.903 38.8032 32.8779C39.6668 31.7676 40.4898 30.617 41.1525 29.3868C41.8431 28.1044 42.3953 26.7224 42.5509 24.9721C42.717 23.1031 42.2272 21.5013 41.4695 20.2988C40.7807 19.2059 39.6905 18.213 38.3557 17.5834C36.7291 16.8163 34.4189 16.4533 32.1282 16.7337C31.7264 16.783 31.3437 16.8418 30.9536 16.9185C28.6948 17.3621 26.6157 17.9807 24.5769 18.6917C20.5127 20.1091 16.8088 21.7971 13.3338 23.753C12.1882 24.3978 11.0333 25.0551 9.95903 25.8033C8.90045 26.5405 8.02319 27.4571 7.59109 28.8511C7.285 29.8387 7.27552 31.1889 7.25548 32.5638C7.24973 32.9606 7.3083 33.4801 7.62838 33.5243C7.88724 33.5598 8.17826 33.2509 8.35554 33.0625C9.67702 31.659 11.2623 30.5066 12.8118 29.4053C17.3809 26.157 22.41 23.5929 27.8584 21.2223C28.9576 20.7441 30.1136 20.3106 31.3451 20.0586C32.6944 19.7826 34.2486 19.6958 35.5962 19.8924C37.0042 20.0977 38.0137 20.5166 38.7472 21.3886C39.4951 22.2777 39.8287 23.3858 39.8287 24.9351C39.8287 26.4176 39.5021 27.7416 39.1015 28.8327C38.266 31.1082 36.7312 32.6846 35.2606 34.2633C34.1863 35.4162 32.9166 36.5572 31.5688 37.5328C31.2581 37.7577 30.5129 38.3545 30.0213 38.3084C29.4635 38.2564 29.5426 37.3467 29.5738 36.6829C29.6038 36.044 29.6237 35.3691 29.6297 34.799C29.6633 31.6208 29.7899 28.4909 29.8535 25.3044C29.8664 24.6598 29.9464 23.9412 29.8348 23.4388C29.5676 22.2338 28.248 23.0223 27.5601 23.3649C27.0533 23.6173 26.6802 23.781 26.3482 24.1407C25.9119 24.6134 26.0401 25.6755 26.0126 26.542C25.9905 27.237 25.9753 27.9611 25.9753 28.6478C25.9753 32.5781 25.8491 36.2755 25.8075 40.2112C25.8036 40.5715 25.8368 40.9402 25.7329 41.2085C25.6237 41.4905 25.4004 41.5761 25.0989 41.744C23.7349 42.5061 22.3893 43.2459 21.0343 43.9979C20.618 44.2287 19.9529 44.478 19.9529 45.0691C19.9529 45.6161 20.4414 45.7422 20.8478 45.9374C22.119 46.5471 23.2591 47.1237 24.5209 47.6736C25.1241 47.9366 25.5276 48.0909 25.6583 48.7081C25.7888 49.3238 25.677 50.0375 25.677 50.685C25.677 52.8521 25.5803 54.6885 25.5651 56.8176C26.9698 56.4821 28.106 56.1577 28.8093 55.155ZM105.236 24.6399C104.731 25.4463 104.372 26.1041 103.856 26.8934C103.661 27.1918 103.289 27.779 102.812 27.6693C102.272 27.5452 102.667 26.1501 102.626 25.6743C102.572 25.0684 102.179 24.3955 101.47 24.4921C100.894 24.5708 100.407 25.265 100.109 25.7297C99.4309 26.7858 99.0226 28.1469 98.4492 29.2764C98.1509 29.8641 97.8506 30.434 97.3865 30.8281C97.2062 30.9807 96.8919 31.1869 96.6034 31.1419C96.331 31.0997 96.0971 30.6684 95.9881 30.3108C95.8746 29.9393 95.8072 29.4664 95.7643 29.0917C95.6333 27.9494 95.7552 26.5429 94.888 26.2101C94.2491 25.9649 93.7076 26.4417 93.4523 26.7274C93.291 26.9074 93.1694 27.112 92.9303 27.1891C92.58 27.3021 92.2315 27.191 91.9048 27.2076C90.932 27.257 90.1176 27.7767 89.5182 28.2051C88.6841 28.8014 87.9483 29.6556 87.3553 30.5327C86.7495 31.4295 86.2787 32.4257 85.9756 33.6359C85.6586 34.901 85.6021 36.5167 86.5909 37.0715C87.4144 37.5336 88.413 36.8624 88.9402 36.4804C90.0437 35.6818 90.6692 34.8609 91.5505 33.8759C91.7368 33.6674 91.9397 33.4389 92.1472 33.1736C92.3041 32.9731 92.5239 32.4842 92.7811 32.527C92.9848 32.5607 93.0971 32.9929 93.1918 33.2103C93.3171 33.4995 93.4206 33.7418 93.5457 33.9493C93.807 34.382 94.2735 34.9658 94.8321 35.0391C96.0022 35.1924 96.7446 34.412 97.2563 33.7647C97.5188 33.4319 97.7629 33.0897 98.0209 32.6749C98.2039 32.38 98.5001 31.6442 98.9158 31.6961C99.1787 31.7289 99.1801 32.0618 99.2514 32.4165C99.4194 33.252 99.8953 33.9359 100.836 33.5432C101.317 33.342 101.739 32.9083 102.104 32.4717C102.885 31.5371 103.317 30.6797 103.913 29.5717C104.161 29.1105 104.403 28.2623 104.938 28.2417C105.615 28.2157 105.745 29.2573 105.871 29.7562C106.134 30.8007 106.486 31.9696 107.399 32.3607C107.963 32.6019 108.608 32.4423 109.059 32.2499C109.569 32.0316 109.925 31.7427 110.234 31.437C110.648 31.0266 111.311 30.3122 111.52 29.7378C111.586 29.5575 111.67 29.0996 111.39 29.0174C111.038 28.9141 110.776 29.4217 110.42 29.4605C109.864 29.5215 109.406 29.1374 109.171 28.7957C108.75 28.1832 108.568 27.2115 108.351 26.2836C108.134 25.3605 108.002 24.4224 107.474 23.8268C107.261 23.5856 106.882 23.382 106.505 23.4205C105.801 23.4927 105.55 24.1381 105.236 24.6399ZM92.0166 29.4239C92.9393 29.2878 92.4472 30.4217 92.2217 30.8279C92.0041 31.2203 91.7719 31.5688 91.5692 31.8991C91.335 32.2799 91.1047 32.6153 90.8606 32.9152C90.6231 33.207 90.3075 33.5789 89.947 33.7278C89.7645 33.8032 89.3755 33.8394 89.2382 33.7464C88.9113 33.5252 89.2171 32.7032 89.3501 32.3794C89.7251 31.4656 90.1304 30.8675 90.7671 30.2368C91.0954 29.9119 91.5236 29.4969 92.0166 29.4239ZM61.9792 33.4875C61.4321 33.9399 60.854 34.5909 60.7113 35.4458C60.433 37.1096 61.934 37.8242 63.5266 37.5332C64.7323 37.3128 65.6792 36.6526 66.2489 35.834C66.528 35.4332 66.8125 34.811 66.7524 34.1345C66.6515 33.0002 65.5603 32.4479 64.291 32.5462C63.3028 32.622 62.5654 33.0029 61.9792 33.4875ZM56.4975 34.6885C55.9632 35.5337 55.5342 36.4056 55.0991 37.3113C54.8204 37.8916 54.5522 38.5082 54.1855 39.0847C53.9346 39.4791 53.3732 40.366 52.7312 40.3225C52.4282 40.3014 52.1971 39.9843 52.0972 39.7868C51.8856 39.3686 51.7678 38.7071 51.7057 38.1242C51.6452 37.5574 51.7469 36.6751 51.5006 36.2587C51.2027 35.7552 50.5556 35.925 50.1581 36.2221C49.6623 36.5921 49.5759 37.063 49.3937 37.7C49.0191 39.0084 48.5571 40.3288 47.8648 41.3573C47.6123 41.7325 47.1901 42.3005 46.6715 42.2624C46.357 42.2397 46.0843 41.8918 45.907 41.5605C45.5467 40.8874 45.3282 40.1722 45.1985 39.3809C45.1239 38.9254 45.1264 38.5005 44.9561 38.1801C44.8554 37.9909 44.6508 37.7855 44.4713 37.7C43.9395 37.4464 43.118 37.7172 42.7746 37.9213C42.393 38.1485 42.2777 38.573 41.9169 38.7156C41.4392 38.9046 41.0902 38.6988 40.5931 38.6786C39.5808 38.6374 38.8955 39.1007 38.3184 39.6022C37.2463 40.5338 36.2792 41.9901 35.8013 43.4628C35.5508 44.2348 35.3137 45.2875 35.503 46.2519C35.6753 47.1303 36.241 47.8155 37.0878 47.8587C38.0327 47.9069 38.783 47.368 39.3812 46.9351C40.0499 46.4509 40.4799 45.962 41.0033 45.3652C41.3584 44.9602 41.7886 44.5475 42.1034 44.0725C42.1783 43.9594 42.3576 43.6663 42.5322 43.6845C42.7471 43.7068 42.8167 44.1309 42.9238 44.3865C43.0353 44.6527 43.1797 44.9105 43.2967 45.1071C43.5431 45.5205 43.9385 46.0388 44.434 46.1786C45.0239 46.3448 45.7056 46.0114 46.1121 45.735C47.1519 45.0287 47.8314 44.0103 48.4614 42.8905C48.5823 42.6756 48.7824 42.364 49.0208 42.3919C49.2378 42.4175 49.2958 42.7675 49.375 43.0016C49.6089 43.6914 49.9976 44.4021 50.6615 44.6273C51.0859 44.7714 51.4088 44.6276 51.687 44.461C52.4131 44.0263 52.9429 43.2551 53.4024 42.5401C53.5601 42.2946 53.7396 41.9386 54.0363 41.9487C54.5856 41.968 54.4467 42.9457 54.4465 43.5745C54.4465 44.2829 54.4092 44.9801 54.4092 45.6246C54.4092 47.0414 54.381 48.2613 54.3347 49.7254C54.2716 51.7227 54.2448 53.8187 54.2041 55.858C54.1914 56.4933 54.0833 57.462 54.3906 57.7238C54.6308 57.9282 55.2351 57.8531 55.789 57.8531C56.2483 57.8531 56.8134 57.9147 57.1128 57.8162C57.7087 57.6204 57.5746 56.8992 57.5976 56.0801C57.6936 52.6607 57.6892 49.2564 57.784 45.8838C57.8822 42.3894 57.8866 39.1575 57.9705 35.6875C57.9787 35.3456 58.0673 34.5618 57.9518 34.247C57.8497 33.9681 57.5562 33.8631 57.3365 33.8962C56.9335 33.9547 56.7043 34.3611 56.4975 34.6885ZM41.6186 40.433C42.6506 40.269 42.02 41.7643 41.8051 42.1876C41.3629 43.0589 40.8183 43.9882 40.1643 44.6628C39.9208 44.9139 39.2438 45.5281 38.8218 45.2171C38.5002 44.9799 38.762 44.0968 38.8778 43.7206C39.0389 43.1979 39.2171 42.775 39.4185 42.4278C39.8419 41.6972 40.542 40.9185 41.2271 40.5623C41.3405 40.5033 41.4792 40.455 41.6186 40.433Z" fill="#E8EBE4"/>
</svg>
