<svg width="140" height="25" viewBox="0 0 140 25" fill="none" xmlns="http://www.w3.org/2000/svg">
<path fill-rule="evenodd" clip-rule="evenodd" d="M12.11 11.4201L7.30333 0.856445H6.27667L0 23.9296H5.43667L8.02667 14.4084L12.11 23.3736L16.17 14.3158L18.7367 23.9296H24.36L18.0367 0.856445H17.01L12.11 11.4201ZM64.6567 6.04619C65.9167 6.04619 67.2233 6.32417 69.6267 7.01914L71.5167 2.22383C70.5027 1.92677 69.9505 1.78255 69.4384 1.64878L69.4383 1.64876L69.4366 1.6483C69.2305 1.59447 69.0308 1.5423 68.81 1.48252C67.2 1.11186 65.8933 0.949707 64.7733 0.949707C60.2233 0.949707 57.12 3.6601 57.12 7.59829C57.12 9.45155 57.7967 10.9342 59.1267 12.0693C60.0833 12.9264 60.6433 13.2276 63.4433 14.6639C66.4767 16.2391 66.7567 16.4476 66.7567 17.4901C66.7567 18.6484 65.94 19.4129 64.7967 19.4129C63.77 19.4129 62.4167 19.1812 60.76 18.7179C59.9433 18.4862 59.43 18.3241 58.0533 17.8144L56.77 22.9804C58.38 23.5364 58.9867 23.7449 60.0133 23.9765C61.4833 24.3008 63.3967 24.5557 64.5867 24.5557C69.2533 24.5557 72.6133 21.6368 72.6133 17.5364C72.6133 15.5442 71.75 13.7604 70.1167 12.4863C69.2067 11.8145 68.95 11.6291 66.22 10.1929C65.31 9.68322 64.75 9.38206 64.47 9.24306C63.3033 8.66392 62.9067 8.2006 62.9067 7.45929C62.9067 6.57899 63.5833 6.04619 64.6567 6.04619ZM51.7067 12.7403C51.7067 6.20757 46.48 1.04159 39.9467 1.04159C33.53 1.04159 28.35 6.32339 28.3267 12.9025C28.3267 19.1804 33.6467 24.4391 40.04 24.3927C46.4567 24.3927 51.7067 19.1804 51.7067 12.7403ZM46.1767 12.7403C46.1767 16.3774 43.4467 19.2962 39.9933 19.2962C36.61 19.2962 33.9033 16.331 33.9033 12.6477C33.9033 9.12646 36.7033 6.16124 40.0633 6.16124C43.4467 6.16124 46.1767 9.10329 46.1767 12.7403ZM93.1934 7.1506L93.1934 7.15056L93.1233 7.11107C91.98 6.50876 90.58 6.16128 89.4133 6.16128C86.1233 6.16128 83.44 9.1265 83.44 12.8099C83.44 16.4701 86.1467 19.3195 89.67 19.3195C91.2567 19.3195 92.47 18.8793 94.3833 17.6052L95.2 23.1418C94.9867 23.2344 94.8039 23.3195 94.6559 23.3884L94.6558 23.3885C94.5448 23.4401 94.4533 23.4827 94.3833 23.5125C92.9833 24.0916 91.21 24.4159 89.6467 24.4159C83.0667 24.4159 77.8867 19.25 77.8867 12.694C77.8867 6.06861 83.09 0.995297 89.9033 0.995297C90.65 0.995297 91.42 1.06479 92.1433 1.20379C93.1467 1.41228 93.73 1.57445 95.06 2.08409L93.8933 7.57438C93.5899 7.37358 93.3567 7.24241 93.1936 7.15067L93.1934 7.1506ZM122.5 12.7403C122.5 6.20757 117.273 1.04159 110.74 1.04159C104.3 1.04159 99.12 6.32339 99.12 12.9025C99.12 19.1804 104.44 24.4391 110.833 24.3927C117.25 24.3927 122.5 19.1804 122.5 12.7403ZM116.947 12.7403C116.947 16.3774 114.217 19.2962 110.763 19.2962C107.38 19.2962 104.673 16.331 104.673 12.6477C104.673 9.12646 107.473 6.16124 110.833 6.16124C114.217 6.16124 116.947 9.10329 116.947 12.7403ZM140 1.52831V6.46262H136.243V23.9296H130.853V6.46262H126.42L127.213 1.52831H140Z" fill="#E8EBE4"/>
</svg>
