<svg width="178" height="35" viewBox="0 0 178 35" fill="none" xmlns="http://www.w3.org/2000/svg">
<path fill-rule="evenodd" clip-rule="evenodd" d="M52.9762 1.50838C51.4462 1.52948 51.1803 1.71408 50.2829 3.89133L45.4684 15.6605H44.9386L39.0816 2.98731C38.5105 1.73412 38.0422 1.54952 37.0833 1.50838V1.51471C35.6678 1.53581 35.2768 2.0337 35.2768 3.19406V13.3578C35.2768 14.5181 35.6689 15.0171 37.0833 15.0371V15.6605C35.3415 15.6183 34.6019 15.5972 33.9048 15.5972C33.2087 15.5972 32.468 15.6183 30.7262 15.6605V15.0382C32.1417 15.0171 32.5337 14.5192 32.5337 13.3578V3.19406C32.5337 2.0337 32.1417 1.53475 30.7262 1.51471V0.892334C32.468 0.934529 33.2087 0.954571 33.9048 0.954571C34.6019 0.954571 35.3415 0.933474 37.0833 0.892334C38.4914 0.933474 39.4291 0.953517 40.3467 0.953517C41.2854 0.953517 42.204 0.932419 43.6323 0.892334V1.50838H42.8164C42.0811 1.50838 41.7548 1.79636 41.7548 2.28898C41.7548 2.49363 41.8162 2.65819 42.5303 4.26159L46.1825 12.4569L49.2626 3.68563C49.4459 3.13077 49.6101 2.65924 49.6101 2.28898C49.6101 1.6529 49.0591 1.50838 48.1818 1.50838V0.892334C49.3643 0.933474 50.018 0.953517 50.5891 0.953517C51.1612 0.953517 51.8128 0.932419 52.9762 0.892334C53.6924 0.913431 54.7244 0.954571 55.7998 0.954571C59.025 0.954571 61.6166 0.912377 63.5767 0.892334L63.6615 4.37657H62.9866C62.6496 2.38603 61.7438 1.68032 59.2147 1.68032H57.3817V7.67516H59.0028C60.9216 7.67516 61.196 6.98949 61.3443 5.68356H62.0595C62.0383 6.49265 62.0171 7.25954 62.0171 7.92305C62.0171 8.89775 62.0383 9.6868 62.0595 10.5159H61.3433C61.3433 8.87771 60.8167 8.46315 58.9826 8.46315H57.3806V13.3999C57.3806 14.3536 57.7811 14.8715 59.7614 14.8715C61.9122 14.8715 63.4083 14.478 63.9147 11.8651H64.631C64.5038 12.8599 64.3142 14.6025 64.3142 15.6605C62.2703 15.6394 59.594 15.5972 56.2851 15.5972C54.6619 15.5972 53.3979 15.6394 52.9762 15.6605V15.0382C54.3462 15.0171 54.7244 14.5192 54.7244 13.3578V3.19406C54.7244 2.0337 54.3462 1.53475 52.9762 1.51471V1.50838ZM44.9238 34.2706H46.619V34.6482H44.5V28.319H44.9238V34.2706ZM57.2143 31.4836C57.2143 33.2168 55.7585 34.6482 54.0357 34.6482C52.3129 34.6482 50.8571 33.2168 50.8571 31.4836C50.8571 29.7505 52.3045 28.319 54.0357 28.319C55.7585 28.319 57.2143 29.7505 57.2143 31.4836ZM51.247 31.4836C51.247 33.0047 52.5079 34.279 54.0357 34.279C55.5561 34.279 56.8233 32.9963 56.8233 31.4836C56.8233 29.9625 55.5561 28.6882 54.0357 28.6882C52.5068 28.6882 51.247 29.9625 51.247 31.4836ZM66.0931 29.4161C65.7784 28.973 65.3345 28.6882 64.6776 28.6882C63.9274 28.6882 63.3638 29.2188 63.3638 29.8644C63.3638 30.51 64.0567 30.78 64.6214 31.0174L65.9532 31.6302C66.4819 31.9256 66.75 32.3011 66.75 32.8571C66.75 33.8803 65.6958 34.6482 64.5663 34.6482C63.5947 34.6482 62.8361 34.1166 62.5119 33.3233L62.9008 33.1682C63.1974 33.8223 63.7431 34.2801 64.5854 34.2801C65.5008 34.2801 66.3061 33.6419 66.3061 32.8244C66.3061 32.1292 65.5008 31.8349 64.899 31.5733L63.6414 30.9847C63.1783 30.7315 62.9198 30.3707 62.9198 29.8813C62.9198 28.9656 63.6594 28.319 64.7051 28.319C65.4076 28.319 66.074 28.6544 66.4078 29.1861L66.0931 29.415V29.4161ZM76.6534 32.5522L75.8185 34.4562H75.4148L78.0255 28.4751L80.6276 34.4562H80.2218L79.388 32.5522H76.6534ZM78.0255 29.4118L76.8017 32.2073H79.2386L78.0255 29.4118ZM90.9993 34.6482L85.7695 29.4815V34.4562H85.3733V28.5912L90.6031 33.7189V28.6682H90.9993V34.6482ZM102.773 31.5986C102.79 32.3739 102.671 33.0543 102.105 33.6503C101.496 34.2885 100.584 34.6482 99.6874 34.6482C97.9212 34.6482 96.4167 33.2094 96.4167 31.5079C96.4167 29.7431 97.9127 28.319 99.7383 28.319C100.896 28.319 101.835 28.876 102.502 29.7578L102.173 30.011C101.606 29.1935 100.744 28.6871 99.7139 28.6871C98.1575 28.6871 96.8225 30.0036 96.8225 31.4836C96.8225 33.0047 98.1246 34.279 99.7139 34.279C100.397 34.279 101.066 34.01 101.589 33.6018C102.139 33.1524 102.342 32.6366 102.367 31.9667H100.085V31.5975H102.774L102.773 31.5986ZM107.436 28.6966V30.9963H110.121V31.375H107.436V34.2706H110.19V34.6482H107.012V28.319H110.19V28.6966H107.436ZM115.912 34.2706H117.607V34.6482H115.488V28.319H115.912V34.2706ZM122.269 28.6966V30.9963H124.954V31.375H122.269V34.2706H125.024V34.6482H121.845V28.319H125.024V28.6966H122.269ZM132.843 29.415C132.528 28.972 132.084 28.6871 131.428 28.6871C130.677 28.6871 130.114 29.2188 130.114 29.8644C130.114 30.51 130.808 30.78 131.371 31.0174L132.704 31.6302C133.231 31.9256 133.5 32.3011 133.5 32.8571C133.5 33.8803 132.446 34.6482 131.316 34.6482C130.345 34.6482 129.586 34.1166 129.262 33.3233L129.651 33.1682C129.947 33.8223 130.493 34.2801 131.335 34.2801C132.251 34.2801 133.056 33.6419 133.056 32.8244C133.056 32.1292 132.251 31.8349 131.649 31.5733L130.391 30.9847C129.928 30.7315 129.67 30.3707 129.67 29.8813C129.67 28.9656 130.409 28.319 131.454 28.319C132.158 28.319 132.825 28.6544 133.158 29.1861L132.843 29.415ZM8.33845 0.892334C12.9103 0.892334 16.9524 3.91349 16.9524 8.27644C16.9524 12.1584 13.7982 15.6605 8.61393 15.6605C4.04208 15.6605 0 12.6383 0 8.27644C0 4.39451 3.1542 0.892334 8.33845 0.892334ZM9.16382 14.901C10.5179 14.901 13.8194 14.1204 13.8194 9.1562C13.8194 5.27427 11.4916 1.6529 7.78856 1.6529C6.43449 1.6529 3.13301 2.4335 3.13301 7.39667C3.13301 11.2786 5.45973 14.9 9.16382 14.9V14.901ZM18.0119 15.0382C19.3342 15.0171 19.6997 14.5192 19.6997 13.3578V3.19406C19.6997 2.0337 19.3342 1.53475 18.0119 1.51471V0.892334C19.6393 0.934529 20.3301 0.954571 20.9818 0.954571C21.6323 0.954571 22.3242 0.933474 23.9516 0.892334V1.51471C22.6293 1.53581 22.2627 2.0337 22.2627 3.19406V13.3578C22.2627 14.4358 22.8529 14.7882 24.5407 14.7882C27.2255 14.7882 28.5679 14.4358 28.9748 11.8651H29.6667L29.3414 15.6605C27.2859 15.6394 23.4017 15.5972 19.5164 15.5972C18.9072 15.5972 18.3785 15.6183 18.0119 15.6605V15.0382ZM65.6905 14.785C67.0456 14.7639 67.4196 14.2755 67.4196 13.1341V3.15292C67.4196 2.01366 67.0467 1.52526 65.6905 1.50416V0.892334C66.6705 0.913431 67.5033 0.953517 68.2747 0.953517C69.6287 0.953517 71.004 0.892334 72.3591 0.892334C75.9848 0.892334 77.1312 2.66452 77.1312 4.66034C77.1312 6.04644 76.255 7.59393 74.2334 8.2047L76.8388 12.8904C77.7765 14.5803 78.2766 14.9685 79.4643 15.131V15.6205C79.1517 15.6394 78.8392 15.6605 78.5054 15.6605C75.7348 15.6605 74.5884 14.7228 73.4208 12.2997L72.6092 10.6077C71.734 8.79543 71.4416 8.65197 70.0451 8.63193V13.1331C70.0451 14.2744 70.4212 14.7628 71.7753 14.7829V15.3947C70.1087 15.3536 69.3999 15.3335 68.7324 15.3335C68.0659 15.3335 67.3571 15.3546 65.6905 15.3947V14.7829V14.785ZM70.0451 7.87875C70.4414 7.96103 71.004 8.02116 71.4214 8.02116C73.2968 8.02116 74.422 7.18675 74.422 5.20992C74.422 3.72361 73.6507 1.5031 70.9415 1.5031C70.5664 1.5031 70.3375 1.5242 70.0451 1.58433V7.87875ZM85.8214 15.0382C87.2009 15.0181 87.5834 14.5202 87.5834 13.3588V3.19406C87.5834 2.0337 87.202 1.53475 85.8214 1.51471V0.892334C86.543 0.934529 87.5834 0.954571 88.4745 0.954571C89.6007 0.954571 90.7249 0.892334 91.8512 0.892334C96.0109 0.892334 97.4762 2.69616 97.4762 5.08228C97.4762 7.48739 95.8625 8.93995 91.9561 8.93995C91.3416 8.93995 90.5978 8.91885 90.2577 8.87666V13.3578C90.2577 14.5181 90.6401 15.0171 92.0207 15.0371V15.6605C90.3223 15.6183 89.6008 15.5972 88.9205 15.5972C88.2414 15.5972 87.5198 15.6183 85.8214 15.6605V15.0382ZM90.2577 8.00744C90.6613 8.09078 91.2345 8.15302 91.6594 8.15302C93.5697 8.15302 94.7172 7.30279 94.7172 5.29009C94.7172 3.75526 93.931 1.51576 91.171 1.51576C90.7895 1.51576 90.5564 1.53686 90.2577 1.59804V8.00744ZM98.5357 15.0382C99.9057 15.0181 100.285 14.5202 100.285 13.3588V3.19406C100.285 2.0337 99.9057 1.53475 98.5357 1.51471V0.892334C99.252 0.913431 100.285 0.954571 101.36 0.954571C104.585 0.954571 107.177 0.912377 109.137 0.892334L109.222 4.37657H108.547C108.21 2.38603 107.303 1.68032 104.774 1.68032H102.941V7.67516H104.563C106.482 7.67516 106.757 6.98949 106.903 5.68356H107.619C107.598 6.49265 107.578 7.25954 107.578 7.92305C107.578 8.89775 107.599 9.6868 107.62 10.5159H106.903C106.903 8.87771 106.376 8.46315 104.542 8.46315H102.941V13.3999C102.941 14.3536 103.341 14.8715 105.322 14.8715C107.473 14.8715 108.969 14.478 109.475 11.8651H110.19C110.063 12.8599 109.875 14.6025 109.875 15.6605C107.83 15.6394 105.155 15.5972 101.846 15.5972C100.221 15.5972 98.9574 15.6394 98.5357 15.6605V15.0382ZM120.648 0.892334C125.22 0.892334 129.262 3.91349 129.262 8.27644C129.262 12.1584 126.109 15.6605 120.923 15.6605C116.352 15.6605 112.31 12.6383 112.31 8.27644C112.31 4.39451 115.463 0.892334 120.648 0.892334ZM121.474 14.901C122.828 14.901 126.13 14.1204 126.13 9.1562C126.13 5.27427 123.802 1.6529 120.098 1.6529C118.743 1.6529 115.441 2.4335 115.441 7.39667C115.441 11.2786 117.77 14.9 121.473 14.9L121.474 14.901ZM130.321 15.0382C131.701 15.0171 132.083 14.5192 132.083 13.3578V3.19406C132.083 2.0337 131.701 1.53475 130.321 1.51471V0.892334C131.042 0.934529 132.083 0.954571 132.976 0.954571C134.101 0.954571 135.225 0.892334 136.35 0.892334C140.512 0.892334 141.976 2.69616 141.976 5.08228C141.976 7.48739 140.364 8.93995 136.456 8.93995C135.842 8.93995 135.098 8.91885 134.758 8.87666V13.3578C134.758 14.5181 135.139 15.0171 136.52 15.0371V15.6605C134.821 15.6183 134.101 15.5972 133.421 15.5972C132.74 15.5972 132.02 15.6183 130.321 15.6605V15.0382ZM134.758 8.00639C135.161 8.08972 135.736 8.15196 136.16 8.15196C138.071 8.15196 139.217 7.30173 139.217 5.28904C139.217 3.7542 138.431 1.51471 135.671 1.51471C135.29 1.51471 135.056 1.53581 134.758 1.59699V8.00639ZM141.976 15.0382C143.298 15.0181 143.665 14.5202 143.665 13.3588V3.19406C143.665 2.0337 143.298 1.53475 141.976 1.51471V0.892334C143.604 0.934529 144.295 0.954571 144.946 0.954571C145.598 0.954571 146.288 0.933474 147.916 0.892334V1.51471C146.594 1.53581 146.228 2.0337 146.228 3.19406V13.3578C146.228 14.4358 146.817 14.7882 148.506 14.7882C151.19 14.7882 152.532 14.4358 152.939 11.8651H153.631L153.305 15.6605C151.251 15.6394 147.366 15.5972 143.483 15.5972C142.871 15.5972 142.343 15.6183 141.976 15.6605V15.0382ZM154.69 15.0382C156.06 15.0181 156.439 14.5202 156.439 13.3588V3.19406C156.439 2.0337 156.06 1.53475 154.69 1.51471V0.892334C155.407 0.913431 156.439 0.954571 157.514 0.954571C160.738 0.954571 163.331 0.912377 165.291 0.892334L165.376 4.37657H164.701C164.363 2.38603 163.458 1.68032 160.929 1.68032H159.095V7.67516H160.717C162.636 7.67516 162.91 6.98949 163.058 5.68356H163.773C163.753 6.49265 163.73 7.25954 163.73 7.92305C163.73 8.89775 163.753 9.6868 163.773 10.5159H163.058C163.058 8.87771 162.53 8.46315 160.697 8.46315H159.095V13.3999C159.095 14.3536 159.494 14.8715 161.476 14.8715C163.627 14.8715 165.123 14.478 165.628 11.8651H166.345C166.218 12.8599 166.029 14.6025 166.029 15.6605C163.985 15.6394 161.307 15.5972 157.998 15.5972C156.376 15.5972 155.112 15.6394 154.69 15.6605V15.0382ZM168.464 11.5392H169.245C169.726 13.8599 171.689 14.901 173.072 14.901C175.035 14.901 175.996 13.6405 175.996 12.5402C175.996 9.33764 168.685 9.49798 168.685 5.05591C168.685 4.0348 169.265 0.893389 173.733 0.893389C174.815 0.893389 176.319 1.01364 177.439 1.41344L177.56 4.9557H176.819C176.598 2.91452 175.276 1.65395 173.152 1.65395C171.529 1.65395 170.568 2.69405 170.568 3.77424C170.568 6.69624 178 6.95679 178 11.4189C178 13.7808 176.317 15.6616 172.992 15.6616C171.71 15.6616 170.046 15.4021 168.624 15.0012L168.464 11.5381V11.5392Z" fill="#E8EBE4"/>
</svg>
